<svg xmlns:x="http://ns.adobe.com/Extensibility/1.0/" xmlns:i="http://ns.adobe.com/AdobeIllustrator/10.0/" xmlns:graph="http://ns.adobe.com/Graphs/1.0/" xmlns:cc="http://creativecommons.org/ns#" xmlns:dc="http://purl.org/dc/elements/1.1/" xmlns:rdf="http://www.w3.org/1999/02/22-rdf-syntax-ns#" xmlns:svg="http://www.w3.org/2000/svg" xmlns="http://www.w3.org/2000/svg" xmlns:xlink="http://www.w3.org/1999/xlink" version="1.1" id="svg2443" x="0px" y="0px" viewBox="0 0 390 290.4" enable-background="new 0 0 390 290.4" xml:space="preserve">
<metadata id="metadata2448">
	<rdf:RDF>
		<cc:Work rdf:about="">
			<dc:format>image/svg+xml</dc:format>
            <dc:type rdf:resource="http://purl.org/dc/dcmitype/StillImage"/>
            <dc:title/>
		</cc:Work>
	</rdf:RDF>
    <sfw xmlns="http://ns.adobe.com/SaveForWeb/1.0/">
		<slices/>
        <sliceSourceBounds bottomLeftOrigin="true" height="290" width="390" x="5.5" y="5"/>
	</sfw>
</metadata>
    <g>
	<g>
		<path id="path2494" fill="#231F20" d="M275.9,191c-3.6-11.4-18.2-39.9-29.6-56c-2.5-3.5-1.6-5.3-0.2-6.4c1.3-1.1,5.6-5,10.6-11.1    c5.1-6.1,6.3-13.1,2.7-23.2c-3.6-10-15.4-33.6-17.9-41.5c-2.9-9-3.1-13.1-1.4-18c2-5.8,5-6,7.2-6c1.2,0,2.1,1.4,2.1,2    c0.1,2.6,0.2,5.7,2.5,12.3c3.8,10.5,13.5,17.4,16.5,18.8c2.1,1,2.5-0.8,2.3-1.6c-0.2-0.8-3.3-13.9-5.7-23.7    c-2.5-10.3-3.7-12.5-5.9-14.7c-3.5-3.5-8.8-5.4-13.3-5.2c-10.1,0.4-14.5,10.7-15.1,11.6c-0.5,0.9-0.7,1.4-1.7,0.7    c-2.9-2.1-11.3-9.5-12-14.2c-0.5-2.7-0.9-3.1-3.5-4.2c-10.1-4.2-18.8-7.8-28.5-9.6c-3.9-0.7-4.1-1.1-8.6-0.2    c-7.7,1.5-12.4,3.4-18.2,6.6c-3.2,1.8-3.6,3-4.2,3.8c-0.5,0.7-1,1.5-2.1,1.9c-1.9,0.7-9.1,3.5-11.5,5c-1.5,0.9-2.4,1.9-1.6,3.7    c1.4,3.2,5.5,9.9,7.3,11.6c1.1,1,3.8,1.7,4.5,1.9c0.6,0.2,1.1,0.4,1.3-0.1c0.3-0.6,0.4-1.4,1.6-2.3c1.9-1.4,5.5-2.4,7.4-2.6    c1.5-0.1,2.3-0.2,3.1,0.4c0.7,0.6,2.5,2.5,3.1,4.5c0.6,1.9,0.2,2.7-0.8,3.1c-1,0.5-4.1,1.2-7.7,1.5c-3.6,0.3-4.6-0.7-4.8-1    c-0.2-0.2-0.7-0.5-1,0c-0.6,0.9-1.5,1.5-2.9,2.2c-0.8,0.4-1.2,1.3-0.5,2.7c2.3,4.2,5.3,8.8,8.1,9.7c2.2,0.7,3.4,0,5.9-1.9    c2.2-1.7,3.7-1.7,4.3-1.2c0.7,0.5,2,1.7,1.7,2.9c-0.6,2.1-4.6,7.1-5.3,8.1c-0.7,1-1.4,1.5-2.7,0.8c-1.9-1-30.5-16.6-34.3-18.2    c-4.2-1.7-6.9-2.1-11-2.3c-3.3-0.2-7.7,0.2-10.5,0.7c-2,0.4-3.2,1.4-5,3.2c-2.6,2.5-5.3,5.8-5.6,8.4c-0.2,1.9,1.9,5.9,2.1,6.2    c0.2,0.3,0.6,0.8,1.7,0.7c1.1-0.1,4-1.7,7.3-1.1c3.1,0.6,3.4,3.1,3.5,5c0,0.3,0.4,1.1,1.3,1.1c1.2,0,3.1,0,5.3,1.1    c2.7,1.4,8.1,5.7,8.9,6.7c0.7,0.8,0.6,1.5-0.6,1.6c-6.8,0.6-17.2,2.8-22,4.4c-3.4,1.2-7.4,2.8-8.8,5.4c-1.6,3-3.6,7.7-4.2,11.1    c-0.6,3.4,2.8,7.5,3.7,8.5c0.6,0.6,1,1,2.1,0.4c1.7-1,5.7-3.6,9.6-3.9c2.3-0.1,3.3,2.2,3.8,3c0.6,0.8,1.1,0.3,3.2-0.3    c3.7-1.1,24.5-0.7,31.8-0.3c3.3,0.2,8,0.7,11.4,2.7c3.4,2,9.6,8.1,9.6,8.1s-8.2,14.5-12.6,23.1c-4.1,7.9-7.1,13.9-8.5,17.4    c-1.4,3.2-2.5,7.6-2.2,11.2c0.4,5.2,0.5,7.8,0.4,10.2c-0.1,2.1-1.9,2.3-4.5,3c-3.6,1-10.6,1.6-16.4,3.1c-5.2,1.4-7.2,2.7-8.1,6.9    c-0.7,3.3-1.8,11.6-1.9,15.4c-0.1,1.5-0.1,2.3,1.8,1.9c1.1-0.2,4.1-0.7,8-1c4.8-0.4,10.1-0.3,14.1-0.3c7.5,0,29.5,1.3,31,1.5    c1.9,0.2,2.3,0,2.1-1.4c-0.2-1.8-0.5-7.7-0.6-11.2c-0.1-3.5-0.6-7,2.4-10.4c3-3.4,25.4-29.8,26.7-31.2c1.1-1.1,1.8-2.4,3.5-0.8    c1.7,1.6,20.2,15.7,23.9,18.6c3.8,2.9,7.2,3.9,11.5,3.9c3,0.1,3.9,5.7,1.3,6.2c-2.7,0.5-6.7,1.4-9.6,2.1c-4.4,1.1-5.7,2.6-7,5.7    c-1.1,2.6-2.4,15.5-2.4,16.6c0,0.8-0.1,2,1.1,1.7c5.4-1.2,13.9-1.5,23.1-1.2c10.5,0.3,20.7,1.3,22.1,1.3c1.5,0.1,1.7-0.1,2.5-1.4    c1.3-2.2,5.3-7,8.7-10C276.5,193.8,276.6,193.2,275.9,191 M235.6,113c-2.7,0.9-4.4,0.1-5.7-1.2c-1.3-1.3-11.9-14.8-15.3-18.9    c-1.7-2.1-3-6.8,2.2-8.8c4.2-1.6,11.8-4.2,13.9-5.4c2.1-1.2,3.2-2.4,3.4-4.7c0.2-2.3,0.2-4.9,0.2-5.7c0-0.9,1.1-1.6,1.6-0.5    c0.4,0.7,2.3,4.6,4.6,9.2c3.5,6.8,7.8,15.3,9.3,18.9c1.3,3.5,0.7,6.1-1.4,8.8C245.6,108.4,237.5,112.3,235.6,113"/>

        <linearGradient id="path2520_1_" gradientUnits="userSpaceOnUse" x1="18.2166" y1="740.8167" x2="-24.1424" y2="805.6947" gradientTransform="matrix(1.3758 0 0 1.4521 247.6082 -1047.4995)">
			<stop offset="0" style="stop-color:#D3D3D3"/>
            <stop offset="0.3681" style="stop-color:#4F4C4C"/>
            <stop offset="0.3681" style="stop-color:#4F4C4C"/>
            <stop offset="0.8132" style="stop-color:#B0AFAF"/>
            <stop offset="1" style="stop-color:#231F20"/>
		</linearGradient>
        <path id="path2520" fill="url(#path2520_1_)" d="M246.4,18.8c-8.3,0-16.6,10.1-15,25.1l0,0c1,9.2,2.3,13.4,4.9,19.4l0,0    c1.3,2.9,15.4,31.3,16,34.3l0,0c0.9,4.3,0.1,7-3,10l0,0c-3.5,3.3-9.2,7-13,8.4l0,0c-0.9,0.3-1.8,0.5-2.5,0.5l0,0    c-0.9,0-3.1-0.3-7.2-5.7l0,0l18.2,25.7c-2.3-3.3-3.5-5.8-3.1-7.9l0,0c0.4-2.1,3.7-4.5,7.6-7.7l0,0c3.8-3.1,8.1-7.1,10-12.5l0,0    c0.6-1.5,0.8-3.1,0.8-4.8l0,0c0-5.1-2.3-10.9-5.2-17.2l0,0c-3.6-8.1-14-25.9-17.1-38.4l0,0c-0.8-3.1-1.1-5.8-1.1-8.3l0,0    c0-7.1,2.9-11.5,6.3-13.1l0,0c1.7-0.7,3.2-1,4.4-1l0,0c1.9,0,3.3,0.6,3.8,0.9l0,0c1,0.6,1.1,1.8,1.1,2.8l0,0v0.2    c0,0.2,0,0.7,0,1.5l0,0c0,2.9,0.4,9.3,3.6,15.5l0,0c4.1,7.9,10.9,12.3,13.5,13.5l0,0c0.2,0.1-6.3-25.3-7.4-30.1l0,0    C260.6,24.5,256.9,18.9,246.4,18.8L246.4,18.8C246.5,18.8,246.5,18.8,246.4,18.8L246.4,18.8C246.4,18.8,246.4,18.8,246.4,18.8"/>

        <linearGradient id="path2546_1_" gradientUnits="userSpaceOnUse" x1="-100.8231" y1="787.8926" x2="-93.1431" y2="770.3026" gradientTransform="matrix(1.3758 0 0 1.4521 247.6082 -1047.4995)">
			<stop offset="0" style="stop-color:#B2B1B1"/>
            <stop offset="0.2" style="stop-color:#B2B1B1"/>
            <stop offset="0.9897" style="stop-color:#656263"/>
            <stop offset="0.9897" style="stop-color:#656263"/>
            <stop offset="1" style="stop-color:#656263"/>
		</linearGradient>
        <path id="path2546" fill="url(#path2546_1_)" d="M133,75.2c1.6,1.7-1.2,1.6-9.6,2.4l0,0c-8.6,0.8-17.2,2.6-21.7,4.4l0,0    c-3.3,1.3-5.3,2.2-6.6,5.4l0,0c0,0-2.7,6.3-3.1,8.8l0,0c-0.2,1.2-0.1,1.9,0.5,2.8l0,0c0.3,0.5,1.1-16.4,21.8-17.5l0,0    c18.3-1,22.8-3,19.2-6.7l0,0L133,75.2L133,75.2z"/>

        <linearGradient id="path2572_1_" gradientUnits="userSpaceOnUse" x1="4.0696" y1="745.6319" x2="-5.3584" y2="744.7409" gradientTransform="matrix(1.3758 0 0 1.4521 247.6082 -1047.4995)">
			<stop offset="0" style="stop-color:#4F4C4C"/>
            <stop offset="0.3586" style="stop-color:#FFFFFF"/>
            <stop offset="0.3586" style="stop-color:#FFFFFF"/>
            <stop offset="0.8241" style="stop-color:#4F4C4C"/>
            <stop offset="1" style="stop-color:#393536"/>
		</linearGradient>
        <path id="path2572" fill="url(#path2572_1_)" d="M247.3,26.6c-1.1,0-2.5,0.2-4,0.9l0,0c-2.9,1.2-5.5,5.1-5.7,11.6l0,0l0,1.5    c0,0,0.4-4.4,1.1-6.5l0,0c1.8-5.6,5.3-6.8,7.6-6.8l0,0c1.6,0,2.3,0.4,2.9,1.1l0,0c0.5,0.6,0.9,1.1,0.9,2l0,0    c0.1,2.5,0.1,5.4,2.5,11.9l0,0c0.1,0.4,0.3,0.8,0.4,1.2l0,0c-2-5.3-2.2-10.1-2.2-12.6l0,0c0-0.8,0-1.7,0-1.7l0,0    C251.1,27.1,249.1,26.6,247.3,26.6L247.3,26.6C247.3,26.6,247.3,26.6,247.3,26.6"/>

        <linearGradient id="path2596_1_" gradientUnits="userSpaceOnUse" x1="-80.9157" y1="796.8416" x2="-73.2697" y2="779.3297" gradientTransform="matrix(1.3758 0 0 1.4521 247.6082 -1047.4995)">
			<stop offset="0" style="stop-color:#D3D3D3"/>
            <stop offset="0.3681" style="stop-color:#B2B1B1"/>
            <stop offset="0.9897" style="stop-color:#231F20"/>
            <stop offset="1" style="stop-color:#231F20"/>
		</linearGradient>
        <path id="path2596" fill="url(#path2596_1_)" d="M133.7,75.9c0.6,1.8-1.8,1.4-10.2,2.1l0,0c-8.6,0.8-17.2,2.5-21.7,4.3l0,0    c-3.3,1.3-5.3,2.2-6.6,5.4l0,0c0,0-2.7,6.3-3.1,8.8l0,0c-0.2,1.2,0.1,1.9,0.7,2.8l0,0c0.9,1.5,1.4,1.8,2.7,1l0,0    c1-0.6,5.6-3.4,8.6-3.4l0,0c2.7-0.1,3.9,1.7,4.3,3.2l0,0c0.2,0.9,1.5,0.5,1.7,0.4l0,0c1.2-0.3,2.4-0.7,6.6-1l0,0    c5.1-0.4,24.9-0.2,32.2,0l0,0c6.5,0.2,32.3,21.5,32.7,21.6l0,0l1.3-2.8c-8.8-7.6-41.3-34.9-49.1-43l0,0L133.7,75.9L133.7,75.9z"/>

        <linearGradient id="path2632_1_" gradientUnits="userSpaceOnUse" x1="-5.3904" y1="881.1805" x2="-144.2347" y2="739.931" gradientTransform="matrix(1.3758 0 0 1.4521 247.6082 -1047.4995)">
			<stop offset="0" style="stop-color:#918F90"/>
            <stop offset="0.1209" style="stop-color:#9C9A9B"/>
            <stop offset="0.1209" style="stop-color:#9C9A9B"/>
            <stop offset="0.1703" style="stop-color:#7B7979"/>
            <stop offset="0.3077" style="stop-color:#918F90"/>
            <stop offset="0.4725" style="stop-color:#F4F4F4"/>
            <stop offset="0.8407" style="stop-color:#7F7D7E"/>
            <stop offset="0.8407" style="stop-color:#7F7D7E"/>
            <stop offset="0.9615" style="stop-color:#4F4C4C"/>
            <stop offset="1" style="stop-color:#4F4C4C"/>
		</linearGradient>
        <path id="path2632" fill="url(#path2632_1_)" d="M107.7,44.4c-1.6,0.2-2.7,0.3-4.4,2l0,0c-1.7,1.6-4.6,3.9-5.7,6.1l0,0    c-0.4,0.9-0.7,1.5-0.5,2.2l0,0c0.2,1.1,0.7,2.3,0.9,2.6l0,0c0.3,0.4,0.7,0.6,1.6,0.3l0,0c1.7-0.5,4.8-0.9,6.7-0.9l0,0    c1.3,0,3.2,0.4,4.1,1.4l0,0c1.2,1.4,1.1,2.6,1.1,3.3l0,0c0,0.3,0.1,0.8,0.7,0.9l0,0c1.2,0.2,2.4,0.2,3.8,0.5l0,0    c3.8,0.9,8.9,4.3,13.7,8.9l0,0c9.3,9,20.8,22.5,31.8,31.8l0,0c5.6,4.7,14.7,10.6,17.8,13.8l0,0c0.6,0.6-0.6,1-1.6,0.5l0,0    c-0.4-0.2-5.6-4.5-6.8-4.8l0,0c-1-0.2-2,0-3,1.5l0,0c-8.7,12.6-18.6,33.8-22.7,43.8l0,0c-1,2.4-1.8,5.4-1.6,8.1l0,0    c0.1,2.7,0.4,8.1,0.4,10.7l0,0c0,2.5-0.6,3.5-3.4,4l0,0c-5.1,0.8-16.6,3-19.5,3.8l0,0c-2.2,0.6-4,1.6-4.9,4.3l0,0    c-1.2,3.9-2.2,9.9-2.3,11.3l0,0c-0.1,0.9,0.2,1.5,1.2,1.3l0,0c4.2-1.1,10.7-2,19.6-1.8l0,0c8.9,0.2,24.8,1.9,26.9,2.1l0,0    c0.7,0.1,1.6,0.1,1.6-0.8l0,0c0-1-0.2-5.5-0.3-11.3l0,0c-0.1-5.8,4.7-10,11.4-17.3l0,0c6.6-7.3,22.7-23.9,23.3-24.5l0,0    c0.4-0.4,0.8-0.8,0-1.7l0,0c-1.1-1.1-6.2-6.7-6.8-7.3l0,0c-0.3-0.3-0.9-1.2-0.7-1.5l0,0c0.2-0.3,0.9,0.2,1.6,0.9l0,0    c3.1,2.7,37,31.4,39.3,32.6l0,0c2.4,1.1,3.9,1.4,6,1.8l0,0c1.6,0.3,3,2.8,3.3,4.7l0,0c0.2,1.9,0.1,4.4-2.4,5l0,0    c-2.5,0.7-8.6,1.9-10.8,2.5l0,0c-2.2,0.6-3.6,1.7-4.6,4.3l0,0c-0.9,2.7-2.2,9.8-2.2,10.5l0,0c0,1.6,0.4,1.7,1.5,1.4l0,0    c1.4-0.4,3.1-0.9,9.6-1.1l0,0c10.9-0.4,27.5,1.1,29.6,1.3l0,0c0.7,0.1,1.3-0.7,1.6-1.2l0,0c2.3-4.2,1.7-5.3,4.8-7.9l0,0    c1.6-1.4,2.4-1.6,1.4-4.1l0,0c-10.1-24.3-19.7-40.8-35.3-61.9l0,0c-10-13.5-21.7-28.5-25.6-33.5l0,0l-47.1-28.4    c-2.8-1.4-24.5-13.2-28.3-15.1l0,0c-3.8-2-6.8-3.6-10.6-4.5l0,0c-2.7-0.6-5.4-0.9-7.8-0.9l0,0C111.8,43.9,109.6,44.1,107.7,44.4"/>

        <radialGradient id="path2660_1_" cx="-65.4862" cy="757.9921" r="31.5815" gradientTransform="matrix(1.3758 0 0 1.4521 247.6082 -1047.4995)" gradientUnits="userSpaceOnUse">
			<stop offset="0" style="stop-color:#FFFFFF"/>
            <stop offset="0.467" style="stop-color:#FFFFFF"/>
            <stop offset="0.7472" style="stop-color:#9C9A9B"/>
            <stop offset="0.7472" style="stop-color:#9C9A9B"/>
            <stop offset="0.8461" style="stop-color:#7B7979"/>
            <stop offset="1" style="stop-color:#4F4C4C"/>
		</radialGradient>
        <path id="path2660" fill="url(#path2660_1_)" d="M160.1,21.1c-6.8,1.9-15.4,5.6-15.7,5.8l0,0c-0.2,0.1-0.2,0.3-0.1,0.5l0,0    c0.1,0.2,1,1.8,1,1.8l0,0c0,0,0.5,1.1,1.8,1.9l0,0c1.3,0.8,2.6,1.1,2.9,1.2l0,0c0.3,0.1,0.5-0.1,0.6-0.3l0,0    c0.1-0.2,1.4-2.7,6.1-4l0,0c2.5-0.7,4.1-0.8,4.9-0.8l0,0c1.2,0,3.1,0.7,4.2,1.8l0,0c1.7,1.8,3.2,4.7,3.5,6.1l0,0    c0.3,1.4,0.1,3.1-1.2,3.8l0,0c-1.3,0.7-5.1,1.6-7.5,1.9l0,0c-2.5,0.3-4.9,0.1-6.3-0.7l0,0c-0.2-0.1-0.4-0.2-0.6,0l0,0    c-0.5,0.5-0.9,0.9-1.9,1.5l0,0c-0.2,0.1-0.4,0.5-0.2,0.9l0,0c0.2,0.5,3.2,5.7,5,7.1l0,0c1.8,1.4,2.7,0.8,4.9-0.5l0,0    c2.2-1.3,3.6-2.8,5.8-2.7l0,0c2.3,0.1,4.2,2.1,4.5,4.4l0,0c0.4,2.9-1.3,4.7-2.4,6.5l0,0c-1,1.7-3.2,4.3-4.2,5.8l0,0    c-1.4,1.9-4,1.3-4,1.3l0,0c0,0,12.5,6.7,19.7,10.5l0,0c2.9,1.5,7.3,0.1,10.4-5.9l0,0c0.7-1.4,5.2-11.5,6.3-14.5l0,0    c1.1-3,2.7-6.3,0.2-12l0,0c-2.6-5.7-10.6-16.2-13.8-20.3l0,0c-1.7-2.1-3.6-3.4-7.9-3.6l0,0c-0.5,0-1.1,0-1.7,0l0,0    C170.6,18.7,165.9,19.4,160.1,21.1"/>

        <radialGradient id="path2682_1_" cx="-58.3942" cy="775.0969" r="11.1532" gradientTransform="matrix(1.3758 0 0 1.3993 247.6082 -1040.396)" gradientUnits="userSpaceOnUse">
			<stop offset="0" style="stop-color:#FFFFFF"/>
            <stop offset="0.2276" style="stop-color:#FFFFFF"/>
            <stop offset="1" style="stop-color:#231F20"/>
		</radialGradient>
        <path id="path2682" fill="url(#path2682_1_)" d="M160.5,41.3c-2.4,0.2-4.8,0.1-6.1-0.7l0,0c-0.2-0.1-0.4-0.1-0.6,0l0,0    c-0.5,0.4-0.8,0.8-1.9,1.4l0,0c-0.2,0.1-0.4,0.4-0.2,0.9l0,0c0.2,0.4,2.9,5.2,4.7,6.6l0,0c1.8,1.4,2.8,0.8,5-0.5l0,0    c2.2-1.2,3.7-2.7,5.9-2.7l0,0l0.5-6.8C166.5,40.2,162.8,41.1,160.5,41.3"/>

        <radialGradient id="path2708_1_" cx="-65.3832" cy="734.2391" r="13.1434" gradientTransform="matrix(1.3758 0 0 1.4521 247.6082 -1047.4995)" gradientUnits="userSpaceOnUse">
			<stop offset="0" style="stop-color:#FFFFFF"/>
            <stop offset="0.5714" style="stop-color:#F7F7F7"/>
            <stop offset="0.5714" style="stop-color:#F7F7F7"/>
            <stop offset="0.8626" style="stop-color:#231F20"/>
            <stop offset="1" style="stop-color:#231F20"/>
		</radialGradient>
        <path id="path2708" fill="url(#path2708_1_)" d="M144.8,27.2c-0.2,0.1-0.1,0.5-0.1,0.7l0,0c0.1,0.2,0.9,1.7,0.9,1.7l0,0    c0,0,0.4,1,1.7,1.7l0,0c1.2,0.7,2.3,1,2.6,1.1l0,0c0.3,0.1,0.5-0.1,0.6-0.3l0,0c0.1-0.2,1.4-2.7,6.1-4l0,0    c2.5-0.7,4.1-0.8,4.9-0.8l0,0l-1.8-5.5C153.4,23.6,145.1,27,144.8,27.2"/>

        <radialGradient id="path2738_1_" cx="-43.3302" cy="759.8602" r="43.5386" gradientTransform="matrix(1.3758 0 0 1.4521 247.6082 -1047.4995)" gradientUnits="userSpaceOnUse">
			<stop offset="0" style="stop-color:#FFFFFF"/>
            <stop offset="0.2527" style="stop-color:#FFFFFF"/>
            <stop offset="0.3461" style="stop-color:#A7A6A6"/>
            <stop offset="0.3461" style="stop-color:#A7A6A6"/>
            <stop offset="0.4121" style="stop-color:#7B7979"/>
            <stop offset="0.4725" style="stop-color:#4F4C4C"/>
            <stop offset="1" style="stop-color:#4F4C4C"/>
		</radialGradient>
        <path id="path2738" fill="url(#path2738_1_)" d="M169.5,58.1c-1,1.7-3.2,4.3-4.2,5.7l0,0c-1.4,1.9-3.4,1-3.4,1l0,0    c0,0,11.9,6.4,19.1,10.2l0,0c2.9,1.5,7.2,0.5,10.2-5.5l0,0c0.7-1.4,5.2-11.5,6.3-14.5l0,0l-25.6-3.7    C172.3,54.3,170.5,56.3,169.5,58.1"/>

        <linearGradient id="path2764_1_" gradientUnits="userSpaceOnUse" x1="-74.3031" y1="785.1643" x2="-95.8631" y2="790.5543" gradientTransform="matrix(1.3758 0 0 1.4521 247.6082 -1047.4995)">
			<stop offset="0" style="stop-color:#F4F4F4"/>
            <stop offset="0.2582" style="stop-color:#BDBCBC"/>
            <stop offset="0.6483" style="stop-color:#F4F4F4"/>
            <stop offset="0.8956" style="stop-color:#FFFFFF"/>
            <stop offset="1" style="stop-color:#FFFFFF"/>
		</linearGradient>
        <path id="path2764" fill="url(#path2764_1_)" d="M130.8,91.6c-3,0.2-10.2,0.9-12.2,1.4l0,0c-2,0.5-5.2,3.3-5.7,3.8l0,0    c-0.7,0.8-0.7,1.5-0.2,1.7l0,0c0.5,0.2,1.5,0,2.3,0l0,0c2.5-0.2,9.3-0.5,17-0.5l0,0c4,0,8.3,0,11.8,0.1l0,0    c3.6,0.1,6.1,0.1,6.3,0.1l0,0c-3-3.4-5.5-7.6-6.5-7.6l0,0c0,0,0,0-0.1,0l0,0C142.2,90.6,131.7,91.6,130.8,91.6"/>
        <path id="path2776" fill="#7F7D7E" d="M112.7,98.6l0.1-0.1L112.7,98.6c-0.3-0.1-0.5-0.4-0.5-0.7c0-0.4,0.2-0.8,0.6-1.3    c0.5-0.5,3.7-3.3,5.8-3.8c2.1-0.5,9.2-1.2,12.2-1.4c0.8,0,11.4-1,12.8-1c0,0,0.1,0,0.1,0c0.3,0,0.7,0.3,1.1,0.8    c0.4,0.5,0.9,1.1,1.5,1.8c1.1,1.5,2.5,3.4,4,5.1l0.2,0.2l-0.3,0c0,0-0.1,0-0.2,0c-1.3,0-9.4-0.2-16.9-0.2c-0.4,0-0.7,0-1.1,0    c-7.7,0-14.5,0.2-17,0.5c-0.6,0.1-1.2,0.1-1.7,0.1C113.2,98.8,112.9,98.7,112.7,98.6 M113.4,98.4c0.5,0,1.1-0.1,1.7-0.1    c2.5-0.2,9.3-0.4,17-0.5c0.4,0,0.7,0,1.1,0c7.1,0,15,0.2,16.7,0.2c-2.1-2.5-4-5.3-5.2-6.6c-0.4-0.4-0.8-0.7-0.9-0.7c0,0,0,0-0.1,0    c-1.4,0-12,1-12.8,1c-3,0.2-10.2,0.9-12.2,1.4c-1.9,0.5-5.2,3.3-5.6,3.7c-0.4,0.4-0.5,0.8-0.5,1c0,0.2,0.1,0.3,0.3,0.4    C113,98.4,113.2,98.4,113.4,98.4"/>

        <linearGradient id="path2810_1_" gradientUnits="userSpaceOnUse" x1="1473.1149" y1="1411.597" x2="1699.8258" y2="1687.811" gradientTransform="matrix(0.603 0 0 0.6365 -744.3229 -884.9041)">
			<stop offset="0" style="stop-color:#FFFFFF"/>
            <stop offset="6.895450e-02" style="stop-color:#E3E2E2"/>
            <stop offset="0.1565" style="stop-color:#FFFFFF"/>
            <stop offset="0.3297" style="stop-color:#D3D3D3"/>
            <stop offset="0.3297" style="stop-color:#D3D3D3"/>
            <stop offset="0.502" style="stop-color:#FFFFFF"/>
            <stop offset="0.9796" style="stop-color:#BBBABA"/>
            <stop offset="0.9796" style="stop-color:#BBBABA"/>
            <stop offset="1" style="stop-color:#BBBABA"/>
		</linearGradient>
        <path id="path2810" fill="url(#path2810_1_)" d="M158.8,10.2c-2.7,1.7-2.8,3.8-4.6,4.9l0,0c-1.9,1.1-6.1,2.2-10.6,4.3l0,0    c-2.5,1.2-2.5,1.4-1.9,2.8l0,0c0.2,0.6,1.8,3.7,2.7,3.7l0,0c0.8,0,1.8-0.4,2.8-0.8l0,0c1.3-0.6,10.2-4.2,17.2-5.7l0,0    c7.8-1.8,16.2-1.9,19.2,1.4l0,0c4.5,5.1,12.5,16.4,14.9,21.4l0,0c2.4,4.9,2.1,7.2,0.6,12.2l0,0c-1.5,4.6-7,16.6-8.6,19.1l0,0    c-1.6,2.5-3.6,3.9-8.3,1.8l0,0c-5.1-2.2-23.7-12.3-27.7-14.4l0,0c-2.7-1.5-14.2-7.6-22.9-12.2l0,0c-3.2-1.7-5.9-2.9-8.7-3.7l0,0    c-6.4-1.7-13.3-0.9-16.4-0.4l0,0c-1.4,0.3-2.3,2.7-2.3,3.7l0,0c0.1,0.8,1.6,0.7,3.4,0.6l0,0c0.9-0.1,2-0.1,2.9,0l0,0    c2.3,0.2,10,1,14.5,3l0,0c4.7,2,28.4,15.5,34.4,18.9l0,0c45.5,26.1,65,43,100.2,105.4l0,0c1.6,2.8,2.3,6.2-0.2,7l0,0    c-3.6,1.1-18.6,4.1-23.1,5.7l0,0c-3.8,1.3-4.3,1.6-4.9,3.6l0,0c-0.6,2.3-1.6,6.8-1.4,7.7l0,0c0.1,0.4-0.2,0.9,0.6,0.9l0,0    c4.2,0,19.4,0,31,1.2l0,0c1.4,0.2,1.5,0.1,2.4-1.3l0,0c1-1.7,5.1-6.5,7.7-8.6l0,0c1.1-0.9,0.4-2.5,0.2-3l0,0    c-3.3-8.9-12.8-28.1-25.6-48.1l0,0c-12.7-19.7-34.1-46.3-37.1-50.7l0,0c-2.9-4.3-4-9.2,2-11.2l0,0c3.9-1.3,13.5-3.4,17.3-4.6l0,0    c3.8-1.1,4.1-2.4,4.4-5.5l0,0c0.3-3.3-0.5-19.6-2.4-29.2l0,0c-0.4-2-1.7-3.7-3.2-4.8l0,0c-1.4-1-6.6-5.8-9.5-9.3l0,0    c-3.3-4-4.8-7.8-5.4-10.7l0,0c0,0-0.1-0.6-0.7-1.3l0,0c-0.2-0.3-0.4-0.4-0.8-0.6l0,0c-5.7-3.7-25.8-9.5-29.9-9.9l0,0    c-0.2,0-0.5,0-0.8,0l0,0C176.3,3.3,167.2,4.9,158.8,10.2"/>

        <linearGradient id="path2832_1_" gradientUnits="userSpaceOnUse" x1="-100.6299" y1="754.0913" x2="1.0391" y2="850.6573" gradientTransform="matrix(1.3758 0 0 1.4521 247.6082 -1047.4995)">
			<stop offset="0" style="stop-color:#DEDEDE"/>
            <stop offset="0.5069" style="stop-color:#4F4C4C"/>
            <stop offset="1" style="stop-color:#DEDEDE"/>
		</linearGradient>
        <path id="path2832" fill="url(#path2832_1_)" d="M105,49.2c1.4,0,4.7-0.1,6.9,0.1l0,0c4.2,0.5,9.6,1.7,13,3.1l0,0    c4.8,2,27.2,16.1,33,19.5l0,0c17.5,10.4,30.7,20,43.2,30.6l0,0c19,16.2,35.5,35,56.1,73.1l0,0c0.8,1.5,1.2,2.6,1.2,4l0,0    c0.1,2.1-1.7,2.9-2.2,3.1l0,0c-3.5,1.1-18.1,4.6-22.4,6.2l0,0c-3.7,1.4-4.3,2.2-4.9,4l0,0c-0.2,0.7-0.8,4.4-1.5,5.3l0,0    c-0.7,1-2.4,1.2-4.2,1.2l0,0c-1.1,0-1.6,0.1-1.5-1.2l0,0c0.1-1.3,0.8-4.8,1.2-6.8l0,0c0.4-2,1.2-3.5,2.9-4.6l0,0    c1.7-1.1,7.8-2.1,11.2-3l0,0c3.4-0.9,3.6-2.5,3.5-5.2l0,0c0,2.9-0.9,3.6-4.3,4.4l0,0c-3.5,0.8-9.3,1.6-11.2,3l0,0    c-1.9,1.3-2.6,3.2-2.9,4.7l0,0c-1.2,5.1-1.9,8.8-1.8,10.1l0,0c0.1,1.1,0.5,1.3,1.7,1.1l0,0c1.2-0.1,4.1-0.6,8.5-0.7l0,0    c1.3,0,1.2-1.7,1.2-3.5l0,0c0-0.7,0-2.7,0.4-3.6l0,0c0.3-1,1-1.9,2.1-2.2l0,0c2.4-0.8,16-4.7,22.8-6.8l0,0c3-0.9,4.3-2,4-4.8l0,0    c-0.2-2.5-2.4-6.3-6.4-12.8l0,0c-3.9-6.5-8.9-15.4-15.5-25.3l0,0c-11.7-17.5-23.2-31.1-37.5-43.1l0,0    C191,90,179.9,82.9,171.7,77.9l0,0c-8.1-5-42.5-24.9-47.8-26.6l0,0c-4.8-1.6-8.7-2.1-12.1-2.5l0,0c-2.3-0.2-4.3-0.1-6.4-0.1l0,0    c-2,0-1.3-1.7-1-2.4l0,0C104.2,46.9,103.1,49.2,105,49.2"/>

        <linearGradient id="path2864_1_" gradientUnits="userSpaceOnUse" x1="-51.6615" y1="800.8672" x2="-91.0935" y2="859.8182" gradientTransform="matrix(1.3758 0 0 1.4521 247.6082 -1047.4995)">
			<stop offset="0" style="stop-color:#C8C7C8"/>
            <stop offset="9.999080e-02" style="stop-color:#FFFFFF"/>
            <stop offset="0.3492" style="stop-color:#F0F0F0"/>
            <stop offset="0.5385" style="stop-color:#FFFFFF"/>
            <stop offset="0.7143" style="stop-color:#393536"/>
            <stop offset="0.8414" style="stop-color:#FFFFFF"/>
            <stop offset="0.9103" style="stop-color:#514E4F"/>
            <stop offset="1" style="stop-color:#868484"/>
		</linearGradient>
        <path id="path2864" fill="url(#path2864_1_)" d="M167.6,114.5c-1.3,1.7-8.1,13-13.5,23.5l0,0c-4,7.6-8.7,18.5-9.6,21.1l0,0    c-0.8,2.4-1,4.6-0.9,7.3l0,0c0.1,2.7,0.5,7,0.7,10.2l0,0c0.1,3-0.6,4.3-3.5,4.9l0,0c-2.5,0.5-15.8,2.8-19.1,3.7l0,0    c-3.3,0.8-4.3,2.6-5,5.1l0,0c-0.7,2.5-1.6,7.3-1.6,8.4l0,0c0,1.1,0.1,1.3,1.1,1.1l0,0c0.9-0.1,3-0.3,3.8-0.4l0,0    c0.9-0.1,0.7-0.7,0.9-1.7l0,0c0.2-0.9,0.4-2.3,0.9-4.5l0,0c0.5-2.2,1.1-3.9,4-4.8l0,0c2.9-0.9,16-3.1,18.2-3.8l0,0    c2.2-0.6,3.6-1.7,3.9-4l0,0c0.3-2.3-0.2-7.3-0.3-11.3l0,0c-0.1-4.2-0.1-6.1,2.1-10.7l0,0c4.3-8.8,17.8-29.5,27-41.5l0,0    c0,0-0.9-0.7-1.9-1.5l0,0c-1.3-1-3-2.3-4-2.6l0,0c-0.3-0.1-0.6-0.1-0.8-0.1l0,0C169,112.9,168.4,113.5,167.6,114.5"/>

        <linearGradient id="path2890_1_" gradientUnits="userSpaceOnUse" x1="-56.0118" y1="831.6978" x2="-45.6418" y2="837.8058" gradientTransform="matrix(1.3758 0 0 1.4521 247.6082 -1047.4995)">
			<stop offset="0" style="stop-color:#FFFFFF"/>
            <stop offset="0.5207" style="stop-color:#CFCECE"/>
            <stop offset="0.5207" style="stop-color:#CFCECE"/>
            <stop offset="0.8352" style="stop-color:#4F4C4C"/>
            <stop offset="1" style="stop-color:#393536"/>
		</linearGradient>
        <path id="path2890" fill="url(#path2890_1_)" d="M165.9,175.2c-2.5,5.7-3.2,8.9-3.2,11.8l0,0c0,2.5,0.2,3.3,0.2,3.3l0,0    c-0.1-2.5,0.8-4.8,2.3-7l0,0c2-3.1,5.1-6.2,8.9-10.4l0,0c6.7-7.3,23-24.1,23.6-24.8l0,0c0.4-0.4,0.8-0.9-0.1-1.9l0,0    c-1.6-1.6-2.5-2.7-5-5.4l0,0c-1.6-1.6-2.6-2.6-2.6-3.2l0,0l0,0l0,0C190,137.7,171.8,159.2,165.9,175.2"/>

        <linearGradient id="path2918_1_" gradientUnits="userSpaceOnUse" x1="-50.1906" y1="803.3527" x2="-39.2026" y2="790.1977" gradientTransform="matrix(1.3758 0 0 1.4521 247.6082 -1047.4995)">
			<stop offset="0" style="stop-color:#FFFFFF"/>
            <stop offset="0.2088" style="stop-color:#FFFFFF"/>
            <stop offset="0.5" style="stop-color:#DEDEDE"/>
            <stop offset="0.5" style="stop-color:#DEDEDE"/>
            <stop offset="0.9451" style="stop-color:#9C9A9B"/>
            <stop offset="1" style="stop-color:#959494"/>
		</linearGradient>
        <path id="path2918" fill="url(#path2918_1_)" d="M105.2,49.2l150.6,133.6c1.5-0.4,2.5-1.5,2.6-2.7l0,0c0.1-1.3-0.2-2.5-1-4l0,0    c-20.9-38.6-36.6-56.7-55.7-73l0,0c-3.3-2.8-6.6-5.6-10.1-8.4l0,0c-9.7-7.6-20.3-14.8-33.1-22.6l0,0c-3.7-2.2-14.1-8.6-22.4-13.6    l0,0c-4.8-2.9-8.9-5.2-10.7-6l0,0c-3.3-1.5-8.6-2.7-13-3.2l0,0c-1.4-0.2-2.8-0.2-4.4-0.2l0,0C107.1,49.2,106.2,49.2,105.2,49.2"/>

        <linearGradient id="path2942_1_" gradientUnits="userSpaceOnUse" x1="-25.9031" y1="729.8559" x2="-11.5781" y2="744.5109" gradientTransform="matrix(1.3758 0 0 1.4521 247.6082 -1047.4995)">
			<stop offset="0" style="stop-color:#231F20"/>
            <stop offset="0.1793" style="stop-color:#F4F4F4"/>
            <stop offset="0.5793" style="stop-color:#444041"/>
            <stop offset="1" style="stop-color:#231F20"/>
		</linearGradient>
        <path id="path2942" fill="url(#path2942_1_)" d="M211.5,11.8c0.4,0.3,0.8,0.5,1.1,0.8l0,0c1,1,1.2,2,1.3,2.2l0,0    c0.5,2.6,1.9,6.1,5,9.9l0,0c2.7,3.3,8.3,8.2,9.5,9l0,0c0.7,0.5,1.5,1.1,2.1,1.8l0,0c0.4-2,1-4.2,1.8-6.3l0,0    c-0.1,0.2-0.3,0.5-0.5,0.9l0,0c-0.3,0.4-0.8,0.9-1.7,1l0,0h0h-0.1c-0.7,0-1.2-0.3-1.7-0.6l0,0c-3-2.4-11.5-9.3-12.7-15.2l0,0    c-0.8-2.8,0.2-1.5-2.5-3l0,0c-0.8-0.3-1.5-0.6-2.2-0.9l0,0C211,11.5,211.3,11.6,211.5,11.8"/>

        <linearGradient id="path2966_1_" gradientUnits="userSpaceOnUse" x1="-24.1832" y1="790.7588" x2="-7.8872" y2="780.0598" gradientTransform="matrix(1.3758 0 0 1.4521 247.6082 -1047.4995)">
			<stop offset="0" style="stop-color:#231F20"/>
            <stop offset="0.1793" style="stop-color:#F4F4F4"/>
            <stop offset="0.5793" style="stop-color:#444041"/>
            <stop offset="1" style="stop-color:#231F20"/>
		</linearGradient>
        <path id="path2966" fill="url(#path2966_1_)" d="M229.1,76.2c-4,1.2-13.8,3.3-17.6,4.5l0,0c-2.8,1.1-3.2,2-3.3,3.5l0,0v0    c0,1.4,0.6,3.5,1.9,5.4l0,0c1.5,2.2,8.6,10.7,16.5,21.2l0,0c0.9,1.2,1.3,1.6,2,2.4l0,0c-0.3-0.4-11.5-15.3-14.9-19.4l0,0    c-1-1.2-2.1-2.8-2.1-5l0,0c0-2.1,1.5-5.1,4.7-6.3l0,0c4.2-1.6,12-4.3,13.7-5.3l0,0c1.7-1,2.2-1.5,2.5-2.7l0,0    C231.7,75.3,230.5,75.8,229.1,76.2"/>

        <linearGradient id="path2992_1_" gradientUnits="userSpaceOnUse" x1="-11.1017" y1="738.7115" x2="10.3095" y2="738.7115" gradientTransform="matrix(1.3758 0 0 1.4521 247.6082 -1047.4995)">
			<stop offset="0" style="stop-color:#656263"/>
            <stop offset="0.2857" style="stop-color:#D3D3D3"/>
            <stop offset="0.533" style="stop-color:#656263"/>
            <stop offset="0.7582" style="stop-color:#393536"/>
            <stop offset="1" style="stop-color:#231F20"/>
		</linearGradient>
        <path id="path2992" fill="url(#path2992_1_)" d="M246.4,18.6c-7.5,0.2-12.6,7-14.1,13.3l0,0c1.5-5.7,6.4-12.3,14.1-12.3l0,0    c9.8,0,13.9,3.9,15.3,9.8l0,0c-1.7-8-8.2-10.7-14.8-10.7l0,0C246.8,18.6,246.6,18.6,246.4,18.6"/>

        <linearGradient id="path3016_1_" gradientUnits="userSpaceOnUse" x1="-98.489" y1="850.0508" x2="-49.1212" y2="850.0508" gradientTransform="matrix(1.3758 0 0 1.4521 247.6082 -1047.4995)">
			<stop offset="0" style="stop-color:#231F20"/>
            <stop offset="0.1793" style="stop-color:#9E9D9D"/>
            <stop offset="0.5793" style="stop-color:#444041"/>
            <stop offset="1" style="stop-color:#231F20"/>
		</linearGradient>
        <path id="path3016" fill="url(#path3016_1_)" d="M175.4,173.7c-7.6,8.2-11.1,10.8-10.9,15.9l0,0c0.1,3,0.3,10.5,0.3,11.6l0,0    c0,0.8,0.1,1.5-1.1,2.1l0,0c-0.6,0.3-1.6,0.3-2.1,0.3l0,0c-2.1,0-22.2-2.1-29.2-2.1l0,0c-7.1,0-13.1,0.8-16.7,1.8l0,0    c-0.6,0.1-2.1,0-2.7-0.9l0,0c-0.3-0.5-0.4-1-0.5-1.4l0,0c-0.2,1.4-0.3,3.1-0.3,3.9l0,0c1.3-0.3,4.3-0.7,8.1-1l0,0    c4.9-0.4,10.5-0.3,14.3-0.3l0,0c3.7,0,31.4,1.5,31.5,1.5l0,0c-0.2-2.2-0.5-7.6-0.5-10.9l0,0c0-0.9,0-0.9-0.1-3.2l0,0    c0-2.6,0.5-5.7,2.9-8.4l0,0c1.3-1.5,6.4-7.5,11.8-13.8l0,0C178.3,170.6,176.7,172.4,175.4,173.7"/>

        <linearGradient id="path3040_1_" gradientUnits="userSpaceOnUse" x1="-35.6727" y1="831.1036" x2="-13.5924" y2="831.1036" gradientTransform="matrix(1.3758 0 0 1.4521 247.6082 -1047.4995)">
			<stop offset="0" style="stop-color:#231F20"/>
            <stop offset="0.1793" style="stop-color:#9E9D9D"/>
            <stop offset="0.5793" style="stop-color:#444041"/>
            <stop offset="1" style="stop-color:#231F20"/>
		</linearGradient>
        <path id="path3040" fill="url(#path3040_1_)" d="M198.5,149.3c0.8,0.1,1.5,0.6,2.1,1.2l0,0c1.4,1.4,20.1,15.6,23.8,18.4l0,0    c1.6,1.2,3,2,4.5,2.6l0,0c-1.3-0.9-3.1-2.4-5.6-4.4l0,0c-3.6-2.9-8.1-6.7-12.7-10.5l0,0c-3.9-3.2-7.7-6.5-11-9.3l0,0    C199.5,148.5,198.8,149.1,198.5,149.3"/>

        <linearGradient id="path3064_1_" gradientUnits="userSpaceOnUse" x1="-20.8895" y1="834.0703" x2="19.6673" y2="834.0703" gradientTransform="matrix(1.3758 0 0 1.4521 247.6082 -1047.4995)">
			<stop offset="0" style="stop-color:#231F20"/>
            <stop offset="0.1793" style="stop-color:#9E9D9D"/>
            <stop offset="0.5793" style="stop-color:#444041"/>
            <stop offset="1" style="stop-color:#231F20"/>
		</linearGradient>
        <path id="path3064" fill="url(#path3064_1_)" d="M243.2,128.9c-0.2,0.5-0.4,1.2-0.4,2.2l0,0c0,1.2,0.4,2.9,1.9,5.2l0,0    c0.9,1.3,1.8,2.6,2.6,3.9l0,0c12.9,20.1,22,39.6,25.4,48.7l0,0c0.7,2.2,0.6,3.3-0.1,4.3l0,0c0,0-6.7,7.3-7.6,8.6l0,0    c-0.3,0.5-0.6,1-1.1,1.4l0,0c-0.5,0.4-1.6,0.7-2.8,0.6l0,0c-10-1-20.8-1.4-26.2-1.4l0,0c-7.1,0-11.2,0.7-13.5,0.8l0,0    c-1.3,0-2.2-0.3-2.3-0.5l0,0c0,0,0-0.1-0.1-0.1l0,0c-0.1,1-0.2,1.8-0.2,2.2l0,0c4.3-0.8,10-1.2,16.4-1.2l0,0c2,0,4.1,0,6.3,0.1    l0,0c10.5,0.3,22.7,1.4,22.8,1.4l0,0c0,0,5.9-7.9,9.5-11l0,0c0.6-0.5,0.9-0.5,0.9-1l0,0c0-0.4-0.2-1-0.5-1.9l0,0    c-3.8-11.4-18.1-39.4-29.2-55l0,0c-1.1-1.5-1.8-3.5-1.8-4.9l0,0c0-1.8,0.9-3.1,1.8-3.9l0,0c0.8-0.7,2.7-2.4,5.1-5l0,0    C246.2,125.4,243.5,127.8,243.2,128.9"/>

        <linearGradient id="path3086_1_" gradientUnits="userSpaceOnUse" x1="-100.661" y1="794.4631" x2="-58.3826" y2="794.4631" gradientTransform="matrix(1.3758 0 0 1.4521 247.6082 -1047.4995)">
			<stop offset="0" style="stop-color:#7B7979"/>
            <stop offset="0.1793" style="stop-color:#D3D3D3"/>
            <stop offset="1" style="stop-color:#231F20"/>
		</linearGradient>
        <path id="path3086" fill="url(#path3086_1_)" d="M116.5,100.9c-4.2,0.3-6.3,0.9-6.7,1l0,0c-0.4,0.1-0.7,0.1-0.7,0.1l0,0    c0.1,0.2,0.3,0.5,0.3,0.6l0,0c0.1,0,0.3-0.1,0.6-0.2l0,0c2.6-0.8,8.2-1.1,15.4-1.2l0,0c6.8,0,14.2,0.1,18,0.2l0,0    c3.4,0.2,8.3,0.7,12.1,2.9l0,0c3.6,2.1,11.4,7.8,11.8,7.5l0,0c-3.2-2.4-6.5-4.7-9.5-6.7l0,0c-4-2.6-7.8-4.5-8.9-4.4l0,0    c-12.2-0.2-12.2-0.2-19.3-0.2l0,0C123.9,100.5,118.6,100.7,116.5,100.9"/>

        <linearGradient id="path3108_1_" gradientUnits="userSpaceOnUse" x1="-99.7275" y1="768.7353" x2="-85.0525" y2="768.7353" gradientTransform="matrix(1.3758 0 0 1.4521 247.6082 -1047.4995)">
			<stop offset="0" style="stop-color:#444041"/>
            <stop offset="0.1793" style="stop-color:#D3D3D3"/>
            <stop offset="1" style="stop-color:#231F20"/>
		</linearGradient>
        <path id="path3108" fill="url(#path3108_1_)" d="M111.1,64.3c0.2,0,0.5,0,0.8,0l0,0c1.2,0,3.1-0.1,4.8,0.8l0,0    c3.1,1.6,11,7.7,12.2,9.1l0,0c1.5,1.8,3,1.6,1.7,0.4l0,0c-4.6-4.5-11.6-9.7-14.9-10.5l0,0c-1.2-0.3-2.8-0.4-4.1-0.5l0,0    c-1-0.1-0.9-1.3-1.2-1.5l0,0C110.4,62.3,110.5,64.2,111.1,64.3"/>

        <linearGradient id="path3130_1_" gradientUnits="userSpaceOnUse" x1="-112.5817" y1="790.6764" x2="-102.676" y2="790.6764" gradientTransform="matrix(1.3758 0 0 1.4521 247.6082 -1047.4995)">
			<stop offset="0" style="stop-color:#7B7979"/>
            <stop offset="0.1793" style="stop-color:#BDBCBC"/>
            <stop offset="1" style="stop-color:#444041"/>
		</linearGradient>
        <path id="path3130" fill="url(#path3130_1_)" d="M103.9,98.3c-2.2,0-7.7,2.9-8.5,3.5l0,0c-1.3,0.8-1.8,0.8-2.6-0.2l0,0    c0.4,0.9,1,1.5,1.6,1.3l0,0c0.6-0.2,7.2-3.8,10.1-3.8l0,0c1,0,1.2,0,2,0.3l0,0c-0.5-0.8-1-1.2-2.3-1.2l0,0    C104,98.3,103.9,98.3,103.9,98.3"/>

        <linearGradient id="path3154_1_" gradientUnits="userSpaceOnUse" x1="-60.4997" y1="729.3085" x2="-59.4226" y2="731.6766" gradientTransform="matrix(1.3758 0 0 1.4521 247.6082 -1047.4995)">
			<stop offset="0" style="stop-color:#FFFFFF"/>
            <stop offset="0.1154" style="stop-color:#EEEEEE"/>
            <stop offset="0.9066" style="stop-color:#5A5758"/>
            <stop offset="1" style="stop-color:#5A5758"/>
		</linearGradient>
        <path id="path3154" fill="url(#path3154_1_)" d="M168.4,10.8c-1.5,0.3-6.3,1.6-6.8,1.8l0,0c-0.5,0.2-0.8,0.3-1.1,0.9l0,0    c-0.3,0.6-0.5,1.8-0.3,2.3l0,0c0.1,0.5,0.6,0.9,1.4,0.6l0,0c1-0.4,6.9-2.7,8-3.1l0,0c0.5-0.2,0.6-0.4,0.7-0.6l0,0    c0.2-0.4,0.2-1,0.2-1.4l0,0c-0.1-0.5-0.4-0.6-0.8-0.6l0,0C169.2,10.6,168.8,10.7,168.4,10.8"/>
        <path id="path3166" fill="#231F20" d="M168.2,11.3c0.7-0.1,1-0.1,1,0.3c0,0.4,0,0.6,0,0.8c0,0.2-0.1,0.3-0.4,0.5    c-0.7,0.2-5,1.9-6.1,2.3c-1,0.4-1.4,0.2-1.5-0.2c-0.1-0.4,0.1-1.1,0.2-1.4c0.2-0.3,0.4-0.5,0.8-0.6    C162.9,12.7,167,11.6,168.2,11.3"/>

        <linearGradient id="path3190_1_" gradientUnits="userSpaceOnUse" x1="-74.1181" y1="753.9258" x2="-34.1125" y2="753.9258" gradientTransform="matrix(1.3758 0 0 1.4521 247.6082 -1047.4995)">
			<stop offset="0" style="stop-color:#FFFFFF"/>
            <stop offset="0.9796" style="stop-color:#231F20"/>
            <stop offset="0.9796" style="stop-color:#231F20"/>
            <stop offset="1" style="stop-color:#231F20"/>
		</linearGradient>
        <path id="path3190" fill="url(#path3190_1_)" d="M174.7,17.9c-12.3,0.3-23,5.8-29,8.4l0,0c4.3-1.6,14.7-6.1,26.3-6.8l0,0    c6.4-0.4,8.9,0.2,11.3,2.9l0,0c3.4,3.9,11.3,15.2,14.1,20.8l0,0c1.1,2.3,1.6,4.3,1.5,6l0,0c-0.2,2.6-1.1,4.5-1.8,6.3l0,0    c-1.2,3-5.8,12.7-6.5,14.1l0,0c-3.3,6-6.4,5.8-9.8,5l0,0c0.2,0.1,1.7,0.9,3.1,1.5l0,0c3.9,1.7,6.4-0.7,8.6-5.1l0,0    c0.7-1.4,5.5-12.1,6.7-15.2l0,0c0.7-1.9,1.6-3.9,1.6-6.3l0,0c0-1.6-0.4-4.1-1.5-6.4l0,0c-2.6-5.9-11-17.1-14.3-21.3l0,0    c-2.6-3.2-5-4-9-4l0,0C175.5,17.9,175.1,17.9,174.7,17.9"/>

        <linearGradient id="path3218_1_" gradientUnits="userSpaceOnUse" x1="-76.7432" y1="852.9542" x2="-61.9152" y2="800.5102" gradientTransform="matrix(1.3758 0 0 1.4521 247.6082 -1047.4995)">
			<stop offset="0" style="stop-color:#E9E9E9"/>
            <stop offset="6.593320e-02" style="stop-color:#5A5758"/>
            <stop offset="0.3517" style="stop-color:#918F90"/>
            <stop offset="0.6044" style="stop-color:#B7B5B6"/>
            <stop offset="0.9586" style="stop-color:#706D6E"/>
            <stop offset="1" style="stop-color:#B2B1B1"/>
		</linearGradient>
        <path id="path3218" fill="url(#path3218_1_)" d="M160.2,139.7c-4.4,7.3-10.6,18.3-11.6,20.7l0,0c-0.9,2.2-1.2,4.2-1.2,6.8l0,0    c0,0,0.4,11.8,0.4,11.9l0,0c0,1.5-0.2,2.7-0.9,3.6l0,0c-0.8,0.9-1.9,1.4-3.5,1.6l0,0c-2.6,0.4-14.8,2.4-18.2,3.1l0,0    c-3.3,0.7-4.6,2.3-5.3,4.6l0,0c-0.5,1.6-1.1,4.4-1.1,5.7l0,0c0,0,0,0.7,0,0.7l0,0c-0.1,1.3,0.3,1.2,0.3,1.2l0,0    c0,0,14.1-1.1,22.6-0.6l0,0c8.4,0.5,20,1.7,20,1.7l0,0c0,0-12.2-2.4-20.5-3l0,0c-4.1-0.3-9-0.2-12.8,0l0,0    c-3.8,0.1-6.6,0.2-6.7-0.1l0,0c-0.1-0.4-0.3-0.9-0.2-2l0,0c0.1-0.7,0.3-1.5,0.5-2.3l0,0c0.5-2.2,1.5-4.1,4.7-4.9l0,0    c3.1-0.8,15-2.9,17.2-3.5l0,0c2.2-0.6,3.7-1.5,4-3.4l0,0c0.1-0.6,0.2-1.9,0.2-3.1l0,0c0-2.5-0.4-9.2-0.4-9.6l0,0    c0.1-4.1,0.2-6.3,2.8-10.7l0,0c3.9-6.9,18.8-30.7,26.2-39l0,0c0.5-0.5,0.7-1,1.5-0.8l0,0c-0.2,0-0.3-0.1-0.5-0.2l0,0    c-0.1-0.1-0.7-0.5-1.5-1.1l0,0C174.2,119,165.9,129.9,160.2,139.7"/>
	</g>
</g>
</svg>